<svg xmlns="http://www.w3.org/2000/svg" xmlns:xlink="http://www.w3.org/1999/xlink" xmlns:lucid="lucid" width="1760" height="1360"><g transform="translate(0 0)" lucid:page-tab-id="0_0"><path d="M611.76 84.33a8 8 0 0 1 8-8h520.78a8 8 0 0 1 8 8v33.5a8 8 0 0 1-8 8H619.76a8 8 0 0 1-8-8z" stroke="#000" stroke-opacity="0" stroke-width="2" fill="#fff" fill-opacity="0"/><use xlink:href="#a" transform="matrix(1,0,0,1,615.7595767063938,80.32888888888888) translate(141.0648888888889 35.72277777777778)"/><use xlink:href="#b" transform="matrix(1,0,0,1,615.7595767063938,80.32888888888888) translate(262.0542222222222 35.72277777777778)"/><path d="M686.07 120.78l395.4 3.4M686.1 120.78h-1.03M1081.46 124.2h1.02" stroke="#b2b2b2" stroke-width="2" fill="none"/><path d="M611.3 129.07a8 8 0 0 1 8-8h521.4a8 8 0 0 1 8 8v4a8 8 0 0 1-8 8H619.3a8 8 0 0 1-8-8z" stroke="#000" stroke-opacity="0" stroke-width="2" fill="#fff" fill-opacity="0"/><use xlink:href="#c" transform="matrix(1,0,0,1,615.3075907693174,125.07333333321691) translate(133.24370370370372 20.4237037037037)"/><use xlink:href="#d" transform="matrix(1,0,0,1,615.3075907693174,125.07333333321691) translate(178.79607407407408 20.4237037037037)"/><use xlink:href="#e" transform="matrix(1,0,0,1,615.3075907693174,125.07333333321691) translate(253.0595925925926 20.4237037037037)"/><use xlink:href="#f" transform="matrix(1,0,0,1,615.3075907693174,125.07333333321691) translate(266.0461481481482 20.4237037037037)"/><use xlink:href="#g" transform="matrix(1,0,0,1,615.3075907693174,125.07333333321691) translate(343.7513333333333 20.4237037037037)"/><use xlink:href="#h" transform="matrix(1,0,0,1,615.3075907693174,125.07333333321691) translate(369.4185185185185 20.4237037037037)"/><path d="M408 306v368h224V306z" stroke="#666" fill-opacity="0"/><path d="M548 306c0 25.4-12.54 46-28 46s-28-20.6-28-46M632 316.82h28m-280 0h28m224 21.65h28m-280 0h28m224 21.65h28m-280 0h28m224 21.64h28m-280 0h28m224 21.65h28m-280 0h28m224 21.66h28m-280 0h28m224 21.65h28m-280 0h28m224 21.65h28m-280 0h28M632 490h28m-280 0h28m224 21.65h28m-280 0h28m224 21.64h28m-280 0h28m224 21.64h28m-280 0h28m224 21.65h28m-280 0h28m224 21.63h28m-280 0h28m224 21.65h28m-280 0h28m224 21.65h28m-280 0h28m224 21.65h28m-280 0h28" stroke="#666" fill-opacity="0"/><use xlink:href="#i" transform="matrix(1,0,0,1,380,398) translate(83.11333333333333 23.133333333333333)"/><use xlink:href="#j" transform="matrix(1,0,0,1,380,398) translate(145.39777777777778 23.133333333333333)"/><use xlink:href="#k" transform="matrix(1,0,0,1,422,293.8235294117647) translate(4.083333333333333 31.133333333333333)"/><use xlink:href="#l" transform="matrix(1,0,0,1,422,315.47058823529414) translate(4.083333333333333 31.133333333333333)"/><use xlink:href="#m" transform="matrix(1,0,0,1,422,337.11764705882354) translate(4.083333333333333 31.133333333333333)"/><use xlink:href="#n" transform="matrix(1,0,0,1,422,358.7647058823529) translate(4.083333333333333 31.133333333333333)"/><use xlink:href="#o" transform="matrix(1,0,0,1,422,380.4117647058824) translate(4.083333333333333 31.133333333333333)"/><use xlink:href="#p" transform="matrix(1,0,0,1,422,402.0588235294117) translate(-7.917777777777777 31.133333333333333)"/><use xlink:href="#q" transform="matrix(1,0,0,1,422,423.7058823529412) translate(4.083333333333333 31.133333333333333)"/><use xlink:href="#r" transform="matrix(1,0,0,1,422,445.3529411764706) translate(4.083333333333333 31.133333333333333)"/><use xlink:href="#s" transform="matrix(1,0,0,1,422,467) translate(9 26.6)"/><use xlink:href="#t" transform="matrix(1,0,0,1,422,488.6470588235294) translate(4 26.6)"/><use xlink:href="#u" transform="matrix(1,0,0,1,422,510.29411764705884) translate(4.675000000000001 26.6)"/><use xlink:href="#v" transform="matrix(1,0,0,1,422,531.9411764705883) translate(4 26.6)"/><use xlink:href="#w" transform="matrix(1,0,0,1,422,553.5882352941177) translate(4 26.6)"/><use xlink:href="#x" transform="matrix(1,0,0,1,422,575.2352941176471) translate(4 26.6)"/><use xlink:href="#y" transform="matrix(1,0,0,1,422,596.8823529411766) translate(4 26.6)"/><use xlink:href="#z" transform="matrix(1,0,0,1,422,618.5294117647059) translate(4 26.6)"/><use xlink:href="#A" transform="matrix(1,0,0,1,422,640.1764705882354) translate(4 26.6)"/><use xlink:href="#B" transform="matrix(1,0,0,1,590,640.1764705882354) translate(4 26.6)"/><use xlink:href="#C" transform="matrix(1,0,0,1,590,618.5294117647059) translate(4 26.6)"/><use xlink:href="#D" transform="matrix(1,0,0,1,590,596.8823529411766) translate(4 26.6)"/><use xlink:href="#E" transform="matrix(1,0,0,1,590,575.2352941176471) translate(3 26.6)"/><use xlink:href="#F" transform="matrix(1,0,0,1,590,553.5882352941177) translate(3 26.6)"/><use xlink:href="#G" transform="matrix(1,0,0,1,590,531.9411764705883) translate(3 26.6)"/><use xlink:href="#H" transform="matrix(1,0,0,1,590,510.29411764705884) translate(3 26.6)"/><use xlink:href="#I" transform="matrix(1,0,0,1,590,488.6470588235294) translate(3 26.6)"/><use xlink:href="#J" transform="matrix(1,0,0,1,590,467) translate(3 26.6)"/><use xlink:href="#K" transform="matrix(1,0,0,1,590,445.3529411764706) translate(1.049999999999999 26.6)"/><use xlink:href="#K" transform="matrix(1,0,0,1,590,423.7058823529412) translate(1.049999999999999 26.6)"/><use xlink:href="#L" transform="matrix(1,0,0,1,590,402.0588235294117) translate(3 26.6)"/><use xlink:href="#M" transform="matrix(1,0,0,1,590,380.4117647058824) translate(4 26.6)"/><use xlink:href="#N" transform="matrix(1,0,0,1,590,358.7647058823529) translate(4 26.6)"/><use xlink:href="#O" transform="matrix(1,0,0,1,590,337.11764705882354) translate(4 26.6)"/><use xlink:href="#P" transform="matrix(1,0,0,1,590,315.47058823529414) translate(4 26.6)"/><use xlink:href="#Q" transform="matrix(1,0,0,1,590,293.8235294117647) translate(4 26.6)"/><path d="M880 420h140v60H880z" fill="none"/><path d="M880 462h42c0 4.86 3.08 7.98 7 7.98s7-3.12 7-6.96c0-3.9-3.08-7.02-7-7.02s-7 3.12-7 7.02m14-1.02l37.8-24m4.2 24c0 4.86 3.08 7.98 7 7.98s7-3.12 7-6.96c0-3.9-3.08-7.02-7-7.02s-7 3.12-7 7.02m14-1.02h28" stroke="#666" fill-opacity="0"/><a xlink:href="https://lucid.app/" target="_blank"><path d="M1200 422h160v80h-160z" fill="none"/><path d="M1200 462h36l8-12 12 24 12-24 12 24 12-24 12 24 12-24 12 24 8-12h24" stroke="#666" fill="none"/><use xlink:href="#R" transform="matrix(1,0,0,1,1200,490) translate(48.88111111111112 23.133333333333333)"/><use xlink:href="#S" transform="matrix(1,0,0,1,1200,490) translate(64.2188888888889 23.133333333333333)"/><use xlink:href="#T" transform="matrix(1,0,0,1,1200,490) translate(87.52111111111111 23.133333333333333)"/><path class="lucid-link lucid-hotspot lucid-overlay-hotspot" d="M1200 422h160v80h-160z" fill="none"/><path class="lucid-link lucid-hotspot lucid-overlay-hotspot" d="M1200 462h36l8-12 12 24 12-24 12 24 12-24 12 24 12-24 12 24 8-12h24" fill="none"/></a><path d="M1020.5 462h179" stroke="#666" fill="none"/><path d="M1020.5 462.5h-.5v-1h.5zM1200 462.5h-.5v-1h.5z" stroke="#666" stroke-width=".05" fill="#666"/><path d="M660.5 425.06H765a5 5 0 0 1 5 5V457a5 5 0 0 0 5 5h104.5" stroke="#666" fill="none"/><path d="M660.5 425.56h-.5v-1h.5zM880 462.5h-.5v-1h.5z" stroke="#666" stroke-width=".05" fill="#666"/><path d="M880 280h140v60H880z" fill="none"/><path d="M880 322h42c0 4.86 3.08 7.98 7 7.98s7-3.12 7-6.96c0-3.9-3.08-7.02-7-7.02s-7 3.12-7 7.02m14-1.02l37.8-24m4.2 24c0 4.86 3.08 7.98 7 7.98s7-3.12 7-6.96c0-3.9-3.08-7.02-7-7.02s-7 3.12-7 7.02m14-1.02h28" stroke="#666" fill-opacity="0"/><path d="M660.5 425.06H765a5 5 0 0 0 5-5V327a5 5 0 0 1 5-5h104.5" stroke="#666" fill="none"/><path d="M660.5 425.56h-.5v-1h.5zM880 322.5h-.5v-1h.5z" stroke="#666" stroke-width=".05" fill="#666"/><path d="M1440 820h80v60h-80z" fill="none"/><path d="M1480 820v12zm-40 12h80m-12 12h-56m12 12h32m-24 12h16m-4 12h-8M965.6 747.17H1475a5 5 0 0 1 5 5v67.33" stroke="#666" fill="none"/><path d="M965.6 747.67h-.5v-1h.5zM1479.5 820v-.5h1v.5z" stroke="#666" stroke-width=".05" fill="#666"/><path d="M1360.5 462H1475a5 5 0 0 1 5 5v352.5" stroke="#666" fill="none"/><path d="M1360.5 462.5h-.5v-1h.5zM1479.5 820v-.5h1v.5z" stroke="#666" stroke-width=".05" fill="#666"/><path d="M240 498.24h80v60h-80z" fill="none"/><path d="M280 498.24v12zm-40 12h80m-12 12h-56m12 12h32m-24 12h16m-4 12h-8M379.5 425.06H285a5 5 0 0 0-5 5v67.68" stroke="#666" fill="none"/><path d="M380 425.56h-.5v-1h.5zM279.5 498.24v-.52h1v.5z" stroke="#666" stroke-width=".05" fill="#666"/><path d="M660.5 425.06H745a5 5 0 0 1 5 5v262.3a5 5 0 0 0 5 5h84.5" stroke="#666" fill="none"/><path d="M660.5 425.56h-.5v-1h.5zM840 697.86h-.5v-1h.5z" stroke="#666" stroke-width=".05" fill="#666"/><path d="M660.5 598.24H715a5 5 0 0 1 5 5v138.93a5 5 0 0 0 5 5h114.5" stroke="#666" fill="none"/><path d="M660.5 598.74h-.5v-1h.5zM840 747.67h-.5v-1h.5z" stroke="#666" stroke-width=".05" fill="#666"/><path d="M1200 282h160v80h-160z" fill="none"/><path d="M1200 322h36l8-12 12 24 12-24 12 24 12-24 12 24 12-24 12 24 8-12h24" stroke="#666" fill="none"/><use xlink:href="#U" transform="matrix(1,0,0,1,1200,350) translate(50.44444444444444 23.133333333333333)"/><use xlink:href="#V" transform="matrix(1,0,0,1,1200,350) translate(64.83333333333333 23.133333333333333)"/><use xlink:href="#W" transform="matrix(1,0,0,1,1200,350) translate(86.56444444444445 23.133333333333333)"/><path d="M1199.5 322h-179" stroke="#666" fill="none"/><path d="M1200 322.5h-.5v-1h.5zM1020.5 322.5h-.5v-1h.5z" stroke="#666" stroke-width=".05" fill="#666"/><path d="M1360.5 322H1475a5 5 0 0 1 5 5v492.5" stroke="#666" fill="none"/><path d="M1360.5 322.5h-.5v-1h.5zM1479.5 820v-.5h1v.5z" stroke="#666" stroke-width=".05" fill="#666"/><path d="M660.5 554.94H1095a5 5 0 0 0 5-5V467a5 5 0 0 0-5-5h-74.5" stroke="#666" fill="none"/><path d="M660.5 555.44h-.5v-1h.5zM1020.5 462.5h-.5v-1h.5z" stroke="#666" stroke-width=".05" fill="#666"/><path d="M660.5 533.3H1065a5 5 0 0 0 5-5V327a5 5 0 0 0-5-5h-44.5" stroke="#666" fill="none"/><path d="M660.5 533.8h-.5v-1h.5zM1020.5 322.5h-.5v-1h.5z" stroke="#666" stroke-width=".05" fill="#666"/><path d="M852.5 672.45v99.63H952.6v-99.63z" stroke="#666" fill-opacity="0"/><path d="M915.05 672.45c0 6.88-5.6 12.46-12.5 12.46s-12.5-5.57-12.5-12.45M952.58 697.36h12.5m-125.08 0h12.5m100.08 49.8h12.5m-125.08 0h12.5" stroke="#666" fill-opacity="0"/><g><use xlink:href="#X" transform="matrix(1,0,0,1,840,697.358522525542) translate(43.656666666666666 23.133333333333333)"/></g><g><use xlink:href="#Y" transform="matrix(1,0,0,1,858.763274833638,691.1321021046183) translate(-3.416666666666667 21.244444444444444)"/></g><g><use xlink:href="#Z" transform="matrix(1,0,0,1,858.763274833638,740.9434654720076) translate(-3.416666666666667 21.244444444444444)"/></g><g><use xlink:href="#aa" transform="matrix(1,0,0,1,933.8163741681899,740.9434654720076) translate(-3.416666666666667 21.244444444444444)"/></g><g><use xlink:href="#ab" transform="matrix(1,0,0,1,933.8163741681899,691.1321021046183) translate(-3.416666666666667 21.244444444444444)"/></g><defs><path fill="#b2b2b2" d="M238 0v-617H30v-123h566v123H386V0H238" id="ac"/><path fill="#b2b2b2" d="M79 0v-560h120l10 99h4c56-93 126-135 225-101l-26 127c-91-24-138-1-187 101V0H79" id="ad"/><path fill="#b2b2b2" d="M79 0v-560h146V0H79zm74-650c-51 0-88-34-88-80 0-48 37-80 88-80 50 0 87 32 87 80 0 46-37 80-87 80" id="ae"/><path fill="#b2b2b2" d="M79 0v-560h120l10 75h4c47-49 99-89 172-89 80 0 127 36 154 98 51-54 105-98 178-98 119 0 174 84 174 225V0H744v-331c2-158-116-137-186-54V0H411v-331c2-158-116-137-186-54V0H79" id="af"/><path fill="#b2b2b2" d="M322 14C166 14 44-95 44-279c0-182 127-295 261-295 176-3 258 155 227 335H187C198-93 362-65 468-138l50 90c-55 38-126 62-196 62zM185-336h228c0-76-34-124-106-124-59 0-111 42-122 124" id="ag"/><g id="a"><use transform="matrix(0.026222222222222223,0,0,0.026222222222222223,0,0)" xlink:href="#ac"/><use transform="matrix(0.026222222222222223,0,0,0.026222222222222223,16.38888888888889,0)" xlink:href="#ad"/><use transform="matrix(0.026222222222222223,0,0,0.026222222222222223,27.82177777777778,0)" xlink:href="#ae"/><use transform="matrix(0.026222222222222223,0,0,0.026222222222222223,35.79333333333334,0)" xlink:href="#af"/><use transform="matrix(0.026222222222222223,0,0,0.026222222222222223,61.071555555555555,0)" xlink:href="#af"/><use transform="matrix(0.026222222222222223,0,0,0.026222222222222223,86.34977777777779,0)" xlink:href="#ag"/><use transform="matrix(0.026222222222222223,0,0,0.026222222222222223,101.5848888888889,0)" xlink:href="#ad"/></g><path fill="#b2b2b2" d="M393 14C206 14 54-120 54-367c0-244 157-387 344-387 94 0 169 45 217 95l-78 94c-37-36-80-62-136-62-112 0-196 96-196 255 0 161 76 258 193 258 63 0 113-30 153-73l78 92C568-24 489 14 393 14" id="ah"/><path fill="#b2b2b2" d="M313 14C173 14 44-94 44-279c0-187 129-295 269-295s269 108 269 295C582-94 453 14 313 14zm0-120c76 0 119-68 119-173 0-106-43-175-119-175s-119 69-119 175c0 105 43 173 119 173" id="ai"/><path fill="#b2b2b2" d="M79 0v-560h120l10 74h4c49-48 106-88 182-88 121 0 173 84 173 225V0H421v-331c0-86-24-117-79-117-46 0-75 22-117 63V0H79" id="aj"/><path fill="#b2b2b2" d="M284 14c-133 0-184-84-184-210v-248H21v-109l86-7 17-150h123v150h138v116H247v248c-6 90 65 110 131 82L402-7c-30 10-69 21-118 21" id="ak"/><path fill="#b2b2b2" d="M217 14C115 14 79-53 79-157v-641h146v648c4 43 18 48 50 42L293 1c-17 7-42 13-76 13" id="al"/><g id="b"><use transform="matrix(0.026222222222222223,0,0,0.026222222222222223,0,0)" xlink:href="#ah"/><use transform="matrix(0.026222222222222223,0,0,0.026222222222222223,17.228,0)" xlink:href="#ai"/><use transform="matrix(0.026222222222222223,0,0,0.026222222222222223,33.64311111111111,0)" xlink:href="#aj"/><use transform="matrix(0.026222222222222223,0,0,0.026222222222222223,50.45155555555556,0)" xlink:href="#ak"/><use transform="matrix(0.026222222222222223,0,0,0.026222222222222223,61.46488888888889,0)" xlink:href="#ad"/><use transform="matrix(0.026222222222222223,0,0,0.026222222222222223,72.89777777777778,0)" xlink:href="#ai"/><use transform="matrix(0.026222222222222223,0,0,0.026222222222222223,89.31288888888889,0)" xlink:href="#al"/><use transform="matrix(0.026222222222222223,0,0,0.026222222222222223,97.5728888888889,0)" xlink:href="#al"/><use transform="matrix(0.026222222222222223,0,0,0.026222222222222223,105.8328888888889,0)" xlink:href="#ag"/><use transform="matrix(0.026222222222222223,0,0,0.026222222222222223,121.068,0)" xlink:href="#ad"/></g><path fill="#b2b2b2" d="M100 0v-733h93v368h3l306-368h104L377-454 642 0H538L319-382 193-232V0h-93" id="am"/><path fill="#b2b2b2" d="M303 13C170 13 51-91 51-271c0-181 119-286 252-286s252 105 252 286C555-91 436 13 303 13zm0-76c94 0 158-83 158-208s-64-210-158-210-157 85-157 210S209-63 303-63" id="an"/><path fill="#b2b2b2" d="M92 0v-796h91c0 111 1 223-3 330 50-50 106-91 180-91 114 0 166 74 166 213V0h-91v-332c0-102-31-145-103-145-56 0-94 28-149 83V0H92" id="ao"/><path fill="#b2b2b2" d="M311 13C167 13 51-92 51-271c0-176 119-286 245-286 154-3 234 132 212 307H142c6 116 77 190 180 190 53 0 96-16 136-43l33 60c-48 31-106 56-180 56zM141-315h291c0-110-50-169-135-169-77 0-145 62-156 169" id="ap"/><path fill="#b2b2b2" d="M92 0v-543h91V0H92zm46-655c-36 0-63-25-63-59 0-37 27-59 63-59s63 22 63 59c0 34-27 59-63 59" id="aq"/><g id="c"><use transform="matrix(0.015296296296296296,0,0,0.015296296296296296,0,0)" xlink:href="#am"/><use transform="matrix(0.015296296296296296,0,0,0.015296296296296296,9.881407407407407,0)" xlink:href="#an"/><use transform="matrix(0.015296296296296296,0,0,0.015296296296296296,19.150962962962964,0)" xlink:href="#ao"/><use transform="matrix(0.015296296296296296,0,0,0.015296296296296296,28.435814814814815,0)" xlink:href="#ap"/><use transform="matrix(0.015296296296296296,0,0,0.015296296296296296,36.909962962962965,0)" xlink:href="#aq"/></g><path fill="#b2b2b2" d="M217 13C126 13 58-43 58-141c0-118 103-177 334-203 0-70-23-137-112-137-63 0-120 29-163 58l-36-63c50-32 127-71 214-71 132 0 188 89 188 223V0h-75l-8-65h-3c-52 43-113 78-180 78zm26-73c53 0 96-25 149-72v-152c-183 22-245 67-245 137 0 62 42 87 96 87" id="ar"/><path fill="#b2b2b2" d="M36 243c-33 0-61-7-80-14l18-70c14 5 32 10 51 10 55 0 68-41 68-107v-605h91V62c0 111-41 181-148 181zm103-898c-36 0-63-25-63-59 0-37 27-59 63-59 35 0 63 22 63 59 0 34-28 59-63 59" id="as"/><path fill="#b2b2b2" d="M92 0v-543h75l8 79h3c47-52 104-93 169-93 83 0 128 40 150 104 56-61 113-104 179-104 112 0 165 74 165 213V0h-91v-332c0-102-32-145-101-145-42 0-86 27-137 83V0h-91v-332c0-102-32-145-101-145-41 0-87 27-137 83V0H92" id="at"/><path fill="#b2b2b2" d="M263 13c-116 0-155-72-155-181v-301H27v-69l85-5 11-152h76v152h147v74H199v303c0 67 21 105 84 105 19 0 44-7 62-14l18 68c-31 10-67 20-100 20" id="au"/><g id="d"><use transform="matrix(0.015296296296296296,0,0,0.015296296296296296,0,0)" xlink:href="#am"/><use transform="matrix(0.015296296296296296,0,0,0.015296296296296296,9.881407407407407,0)" xlink:href="#ar"/><use transform="matrix(0.015296296296296296,0,0,0.015296296296296296,18.508518518518517,0)" xlink:href="#as"/><use transform="matrix(0.015296296296296296,0,0,0.015296296296296296,22.715,0)" xlink:href="#aq"/><use transform="matrix(0.015296296296296296,0,0,0.015296296296296296,26.921481481481482,0)" xlink:href="#at"/><use transform="matrix(0.015296296296296296,0,0,0.015296296296296296,41.08585185185185,0)" xlink:href="#an"/><use transform="matrix(0.015296296296296296,0,0,0.015296296296296296,50.355407407407405,0)" xlink:href="#au"/><use transform="matrix(0.015296296296296296,0,0,0.015296296296296296,56.12211111111111,0)" xlink:href="#an"/></g><path fill="#b2b2b2" d="M103 279V-838h64V279h-64" id="av"/><use transform="matrix(0.015296296296296296,0,0,0.015296296296296296,0,0)" xlink:href="#av" id="e"/><path fill="#b2b2b2" d="M100 0v-733h184c225 0 346 131 346 364C630-137 509 0 288 0H100zm93-76h83c173 0 258-108 258-293 0-186-85-289-258-289h-83v582" id="aw"/><path fill="#b2b2b2" d="M306 13C162 13 51-91 51-271c0-181 123-286 262-286 71 0 120 30 159 64l-47 61c-32-29-65-49-109-49-98 0-170 85-170 210S214-63 314-63c50 0 94-23 128-54l39 61c-48 44-110 69-175 69" id="ax"/><path fill="#b2b2b2" d="M567-281C567-18 341 97 176-56h-3l-8 56H92v-796h91c0 106 2 214-3 316 49-43 110-77 170-77 141 0 217 110 217 276zM183-120C317-1 471-73 472-279c0-120-40-201-143-201-46 0-94 26-146 75v285" id="ay"/><path fill="#b2b2b2" d="M92 0v-543h75l8 99h3c50-86 117-137 212-101l-17 80c-18-7-31-9-53-9-45 0-101 32-137 125V0H92" id="az"/><g id="f"><use transform="matrix(0.015296296296296296,0,0,0.015296296296296296,0,0)" xlink:href="#aw"/><use transform="matrix(0.015296296296296296,0,0,0.015296296296296296,10.508555555555555,0)" xlink:href="#ap"/><use transform="matrix(0.015296296296296296,0,0,0.015296296296296296,18.982703703703702,0)" xlink:href="#ax"/><use transform="matrix(0.015296296296296296,0,0,0.015296296296296296,26.768518518518515,0)" xlink:href="#ap"/><use transform="matrix(0.015296296296296296,0,0,0.015296296296296296,35.242666666666665,0)" xlink:href="#at"/><use transform="matrix(0.015296296296296296,0,0,0.015296296296296296,49.407037037037036,0)" xlink:href="#ay"/><use transform="matrix(0.015296296296296296,0,0,0.015296296296296296,58.86014814814815,0)" xlink:href="#ap"/><use transform="matrix(0.015296296296296296,0,0,0.015296296296296296,67.3342962962963,0)" xlink:href="#az"/></g><path fill="#b2b2b2" d="M264 13C149 13 77-35 29-87l46-60c43 45 99 84 182 84 87 0 149-52 149-136 0-88-59-147-228-147v-70c151 0 203-61 203-140 0-71-48-116-124-118-59 2-111 32-152 73l-49-58c55-51 120-88 205-88 123 0 213 66 213 184 0 89-53 148-131 177v4c87 20 156 86 156 186C499-65 394 13 264 13" id="aA"/><path fill="#b2b2b2" d="M88 0v-76h163v-547H121v-58c65-12 112-29 152-52h70v657h147V0H88" id="aB"/><path fill="#b2b2b2" d="M75 190l-22-54c62-27 99-75 100-136-42 5-77-17-78-63 0-39 32-64 69-64 48 0 77 41 77 108 0 96-56 171-146 209" id="aC"/><g id="g"><use transform="matrix(0.015296296296296296,0,0,0.015296296296296296,0,0)" xlink:href="#aA"/><use transform="matrix(0.015296296296296296,0,0,0.015296296296296296,8.489444444444445,0)" xlink:href="#aB"/><use transform="matrix(0.015296296296296296,0,0,0.015296296296296296,16.97888888888889,0)" xlink:href="#aC"/></g><path fill="#b2b2b2" d="M44 0v-54c230-201 336-347 336-473 0-84-44-145-135-145-60 0-112 37-152 85l-53-52c60-65 123-108 216-108 131 0 213 86 213 217 0 146-115 295-287 458 102-11 212-6 323-7V0H44" id="aD"/><path fill="#b2b2b2" d="M278 13C138 13 49-114 49-369s89-378 229-378c139 0 228 124 228 378 0 255-89 382-228 382zm0-73c83 0 139-93 139-309 0-214-56-304-139-304-84 0-140 90-140 304 0 216 56 309 140 309" id="aE"/><g id="h"><use transform="matrix(0.015296296296296296,0,0,0.015296296296296296,0,0)" xlink:href="#aD"/><use transform="matrix(0.015296296296296296,0,0,0.015296296296296296,8.489444444444445,0)" xlink:href="#aE"/><use transform="matrix(0.015296296296296296,0,0,0.015296296296296296,16.97888888888889,0)" xlink:href="#aD"/><use transform="matrix(0.015296296296296296,0,0,0.015296296296296296,25.468333333333334,0)" xlink:href="#aA"/></g><path fill="#666" d="M191-298h222c-37-120-75-237-109-360h-4c-33 124-71 241-109 360zM506 0l-70-224H168L97 0H3l249-733h103L604 0h-98" id="aF"/><path fill="#666" d="M92 0v-543h75l8 99h3c50-86 117-137 212-101l-17 80c-18-7-31-9-53-9-45 0-101 32-137 125V0H92" id="aG"/><path fill="#666" d="M277 13C141 13 53-90 53-271c-5-249 231-368 388-222-8-95-4-201-5-303h91V0h-74c-4-21-4-46-11-64-43 42-100 77-165 77zm20-76c50 0 94-25 139-75v-285c-123-120-291-42-289 151 0 131 54 209 150 209" id="aH"/><path fill="#666" d="M250 13C136 13 85-61 85-199v-344h91v333c0 101 30 144 102 144 56 0 95-27 147-92v-385h91V0h-76l-7-85h-3c-51 59-105 98-180 98" id="aI"/><path fill="#666" d="M92 0v-543h91V0H92zm46-655c-36 0-63-25-63-59 0-37 27-59 63-59s63 22 63 59c0 34-27 59-63 59" id="aJ"/><path fill="#666" d="M92 0v-543h75l8 78h3c52-51 108-92 182-92 114 0 166 74 166 213V0h-91v-332c0-102-31-145-103-145-56 0-94 28-149 83V0H92" id="aK"/><path fill="#666" d="M303 13C170 13 51-91 51-271c0-181 119-286 252-286s252 105 252 286C555-91 436 13 303 13zm0-76c94 0 158-83 158-208s-64-210-158-210-157 85-157 210S209-63 303-63" id="aL"/><g id="i"><use transform="matrix(0.015555555555555557,0,0,0.015555555555555557,0,0)" xlink:href="#aF"/><use transform="matrix(0.015555555555555557,0,0,0.015555555555555557,9.442222222222224,0)" xlink:href="#aG"/><use transform="matrix(0.015555555555555557,0,0,0.015555555555555557,15.47777777777778,0)" xlink:href="#aH"/><use transform="matrix(0.015555555555555557,0,0,0.015555555555555557,25.122222222222227,0)" xlink:href="#aI"/><use transform="matrix(0.015555555555555557,0,0,0.015555555555555557,34.56444444444445,0)" xlink:href="#aJ"/><use transform="matrix(0.015555555555555557,0,0,0.015555555555555557,38.842222222222226,0)" xlink:href="#aK"/><use transform="matrix(0.015555555555555557,0,0,0.015555555555555557,48.34666666666667,0)" xlink:href="#aL"/></g><path fill="#666" d="M100 0v-733h112c65 181 131 360 193 545h5c59-186 126-364 190-545h112V0h-87c2-212-8-425 12-622h-4C570-437 502-256 436-74h-62c-66-182-134-363-197-548h-4c18 198 9 411 11 622h-84" id="aM"/><path fill="#666" d="M306 13C162 13 51-91 51-271c0-181 123-286 262-286 71 0 120 30 159 64l-47 61c-32-29-65-49-109-49-98 0-170 85-170 210S214-63 314-63c50 0 94-23 128-54l39 61c-48 44-110 69-175 69" id="aN"/><g id="j"><use transform="matrix(0.015555555555555557,0,0,0.015555555555555557,0,0)" xlink:href="#aM"/><use transform="matrix(0.015555555555555557,0,0,0.015555555555555557,12.631111111111112,0)" xlink:href="#aJ"/><use transform="matrix(0.015555555555555557,0,0,0.015555555555555557,16.90888888888889,0)" xlink:href="#aN"/><use transform="matrix(0.015555555555555557,0,0,0.015555555555555557,24.826666666666668,0)" xlink:href="#aG"/><use transform="matrix(0.015555555555555557,0,0,0.015555555555555557,30.862222222222222,0)" xlink:href="#aL"/></g><path fill="#666" d="M88 0v-76h163v-547H121v-58c65-12 112-29 152-52h70v657h147V0H88" id="aO"/><use transform="matrix(0.015555555555555557,0,0,0.015555555555555557,0,0)" xlink:href="#aO" id="k"/><path fill="#666" d="M44 0v-54c230-201 336-347 336-473 0-84-44-145-135-145-60 0-112 37-152 85l-53-52c60-65 123-108 216-108 131 0 213 86 213 217 0 146-115 295-287 458 102-11 212-6 323-7V0H44" id="aP"/><use transform="matrix(0.015555555555555557,0,0,0.015555555555555557,0,0)" xlink:href="#aP" id="l"/><path fill="#666" d="M264 13C149 13 77-35 29-87l46-60c43 45 99 84 182 84 87 0 149-52 149-136 0-88-59-147-228-147v-70c151 0 203-61 203-140 0-71-48-116-124-118-59 2-111 32-152 73l-49-58c55-51 120-88 205-88 123 0 213 66 213 184 0 89-53 148-131 177v4c87 20 156 86 156 186C499-65 394 13 264 13" id="aQ"/><use transform="matrix(0.015555555555555557,0,0,0.015555555555555557,0,0)" xlink:href="#aQ" id="m"/><path fill="#666" d="M115-275h224c1-122-3-242 6-358h-4c-64 130-151 240-226 358zm408 0v73h-97V0h-87v-202H20v-60l305-471h101v458h97" id="aR"/><use transform="matrix(0.015555555555555557,0,0,0.015555555555555557,0,0)" xlink:href="#aR" id="n"/><path fill="#666" d="M261 13C147 13 77-35 28-84l45-60c42 42 95 81 180 81 86 0 156-66 156-173 0-105-60-167-152-167-49 0-80 15-122 43l-49-30 23-343h357v78H189l-18 212c32-18 65-29 109-29 122 0 221 72 221 233S385 13 261 13" id="aS"/><use transform="matrix(0.015555555555555557,0,0,0.015555555555555557,0,0)" xlink:href="#aS" id="o"/><path fill="#666" d="M388 13C195 13 58-128 58-366c0-237 142-381 336-381 102 0 169 46 211 91l-50 60c-37-39-84-70-159-70-147 0-243 114-243 297 0 185 87 301 244 301 53 0 104-16 133-43v-192H375v-77h240v308c-47 49-128 85-227 85" id="aT"/><path fill="#666" d="M100 0v-733h96c115 204 239 400 345 613h5c-18-192-10-405-12-613h88V0h-95C412-205 289-402 181-614h-4c17 193 10 407 11 614h-88" id="aU"/><path fill="#666" d="M100 0v-733h184c225 0 346 131 346 364C630-137 509 0 288 0H100zm93-76h83c173 0 258-108 258-293 0-186-85-289-258-289h-83v582" id="aV"/><g id="p"><use transform="matrix(0.015555555555555557,0,0,0.015555555555555557,0,0)" xlink:href="#aT"/><use transform="matrix(0.015555555555555557,0,0,0.015555555555555557,10.717777777777778,0)" xlink:href="#aU"/><use transform="matrix(0.015555555555555557,0,0,0.015555555555555557,21.948888888888888,0)" xlink:href="#aV"/></g><path fill="#666" d="M198 0c12-278 63-455 206-655H49v-78h459v55C336-457 304-287 293 0h-95" id="aW"/><use transform="matrix(0.015555555555555557,0,0,0.015555555555555557,0,0)" xlink:href="#aW" id="q"/><path fill="#666" d="M279 13C144 13 45-69 45-182c0-98 68-166 135-202v-5c-54-37-99-92-99-169 0-112 86-186 201-186 125 0 201 80 201 193 0 77-54 143-98 177v5c64 37 124 92 124 192 0 107-92 190-230 190zm50-411c50-44 76-94 76-148 0-72-46-131-125-131-67 0-116 48-116 119 0 88 79 126 165 160zM281-55c84 0 141-51 141-124 0-98-90-135-194-177-59 38-100 96-100 166 0 78 65 135 153 135" id="aX"/><use transform="matrix(0.015555555555555557,0,0,0.015555555555555557,0,0)" xlink:href="#aX" id="r"/><path d="M99-251c64 0 84 50 84 122C183-37 130 33 47-8c-14-7-20-23-25-40l30-5c6 39 69 39 84 7 9-19 16-44 16-74-10 22-31 35-62 35-49 0-73-33-73-83 0-54 28-83 82-83zm-1 141c31-1 51-18 51-49 0-36-14-67-51-67-34 0-49 23-49 58 0 34 15 58 49 58" id="aY"/><use transform="matrix(0.05,0,0,0.05,0,0)" xlink:href="#aY" id="s"/><path d="M27 0v-27h64v-190l-56 39v-29l58-41h29v221h61V0H27" id="aZ"/><path d="M101-251c68 0 85 55 85 127S166 4 100 4C33 4 14-52 14-124c0-73 17-127 87-127zm-1 229c47 0 54-49 54-102s-4-102-53-102c-51 0-55 48-55 102 0 53 5 102 54 102" id="ba"/><g id="t"><use transform="matrix(0.05,0,0,0.05,0,0)" xlink:href="#aZ"/><use transform="matrix(0.05,0,0,0.05,10,0)" xlink:href="#ba"/></g><g id="u"><use transform="matrix(0.05,0,0,0.05,0,0)" xlink:href="#aZ"/><use transform="matrix(0.05,0,0,0.05,8.65,0)" xlink:href="#aZ"/></g><path d="M101-251c82-7 93 87 43 132L82-64C71-53 59-42 53-27h129V0H18c2-99 128-94 128-182 0-28-16-43-45-43s-46 15-49 41l-32-3c6-41 34-60 81-64" id="bb"/><g id="v"><use transform="matrix(0.05,0,0,0.05,0,0)" xlink:href="#aZ"/><use transform="matrix(0.05,0,0,0.05,10,0)" xlink:href="#bb"/></g><path d="M126-127c33 6 58 20 58 59 0 88-139 92-164 29-3-8-5-16-6-25l32-3c6 27 21 44 54 44 32 0 52-15 52-46 0-38-36-46-79-43v-28c39 1 72-4 72-42 0-27-17-43-46-43-28 0-47 15-49 41l-32-3c6-42 35-63 81-64 48-1 79 21 79 65 0 36-21 52-52 59" id="bc"/><g id="w"><use transform="matrix(0.05,0,0,0.05,0,0)" xlink:href="#aZ"/><use transform="matrix(0.05,0,0,0.05,10,0)" xlink:href="#bc"/></g><path d="M155-56V0h-30v-56H8v-25l114-167h33v167h35v25h-35zm-30-156c-27 46-58 90-88 131h88v-131" id="bd"/><g id="x"><use transform="matrix(0.05,0,0,0.05,0,0)" xlink:href="#aZ"/><use transform="matrix(0.05,0,0,0.05,10,0)" xlink:href="#bd"/></g><path d="M54-142c48-35 137-8 131 61C196 18 31 33 14-55l32-4c7 23 22 37 52 37 35-1 51-22 54-58 4-55-73-65-99-34H22l8-134h141v27H59" id="be"/><g id="y"><use transform="matrix(0.05,0,0,0.05,0,0)" xlink:href="#aZ"/><use transform="matrix(0.05,0,0,0.05,10,0)" xlink:href="#be"/></g><path d="M110-160c48 1 74 30 74 79 0 53-28 85-80 85-65 0-83-55-86-122-5-90 50-162 133-122 14 7 22 21 27 39l-31 6c-5-40-67-38-82-6-9 19-15 44-15 74 11-20 30-34 60-33zm-7 138c34 0 49-23 49-58s-16-56-50-56c-29 0-50 16-49 49 1 36 15 65 50 65" id="bf"/><g id="z"><use transform="matrix(0.05,0,0,0.05,0,0)" xlink:href="#aZ"/><use transform="matrix(0.05,0,0,0.05,10,0)" xlink:href="#bf"/></g><path d="M64 0c3-98 48-159 88-221H18v-27h164v26C143-157 98-101 97 0H64" id="bg"/><g id="A"><use transform="matrix(0.05,0,0,0.05,0,0)" xlink:href="#aZ"/><use transform="matrix(0.05,0,0,0.05,10,0)" xlink:href="#bg"/></g><path d="M134-131c28 9 52 24 51 62-1 50-34 73-85 73S17-19 16-69c0-36 21-54 49-61-75-25-45-126 34-121 46 3 78 18 79 63 0 33-17 51-44 57zm-34-11c31 1 46-15 46-44 0-28-17-43-47-42-29 0-46 13-45 42 1 28 16 44 46 44zm1 122c35 0 51-18 51-52 0-30-18-46-53-46-33 0-51 17-51 47 0 34 19 51 53 51" id="bh"/><g id="B"><use transform="matrix(0.05,0,0,0.05,0,0)" xlink:href="#aZ"/><use transform="matrix(0.05,0,0,0.05,10,0)" xlink:href="#bh"/></g><g id="C"><use transform="matrix(0.05,0,0,0.05,0,0)" xlink:href="#aZ"/><use transform="matrix(0.05,0,0,0.05,10,0)" xlink:href="#aY"/></g><g id="D"><use transform="matrix(0.05,0,0,0.05,0,0)" xlink:href="#bb"/><use transform="matrix(0.05,0,0,0.05,10,0)" xlink:href="#ba"/></g><path d="M205 0l-28-72H64L36 0H1l101-248h38L239 0h-34zm-38-99l-47-123c-12 45-31 82-46 123h93" id="bi"/><g id="E"><use transform="matrix(0.05,0,0,0.05,0,0)" xlink:href="#bi"/><use transform="matrix(0.05,0,0,0.05,12,0)" xlink:href="#ba"/></g><g id="F"><use transform="matrix(0.05,0,0,0.05,0,0)" xlink:href="#bi"/><use transform="matrix(0.05,0,0,0.05,12,0)" xlink:href="#aZ"/></g><g id="G"><use transform="matrix(0.05,0,0,0.05,0,0)" xlink:href="#bi"/><use transform="matrix(0.05,0,0,0.05,12,0)" xlink:href="#bb"/></g><g id="H"><use transform="matrix(0.05,0,0,0.05,0,0)" xlink:href="#bi"/><use transform="matrix(0.05,0,0,0.05,12,0)" xlink:href="#bc"/></g><g id="I"><use transform="matrix(0.05,0,0,0.05,0,0)" xlink:href="#bi"/><use transform="matrix(0.05,0,0,0.05,12,0)" xlink:href="#bd"/></g><g id="J"><use transform="matrix(0.05,0,0,0.05,0,0)" xlink:href="#bi"/><use transform="matrix(0.05,0,0,0.05,12,0)" xlink:href="#be"/></g><path d="M190 0L58-211 59 0H30v-248h39L202-35l-2-213h31V0h-41" id="bj"/><path d="M212-179c-10-28-35-45-73-45-59 0-87 40-87 99 0 60 29 101 89 101 43 0 62-24 78-52l27 14C228-24 195 4 139 4 59 4 22-46 18-125c-6-104 99-153 187-111 19 9 31 26 39 46" id="bk"/><g id="K"><use transform="matrix(0.05,0,0,0.05,0,0)" xlink:href="#bj"/><use transform="matrix(0.05,0,0,0.05,12.950000000000001,0)" xlink:href="#bk"/></g><path d="M137 0h-34L2-248h35l83 218 83-218h36" id="bl"/><g id="L"><use transform="matrix(0.05,0,0,0.05,0,0)" xlink:href="#be"/><use transform="matrix(0.05,0,0,0.05,10,0)" xlink:href="#bl"/></g><g id="M"><use transform="matrix(0.05,0,0,0.05,0,0)" xlink:href="#bc"/><use transform="matrix(0.05,0,0,0.05,10,0)" xlink:href="#ba"/></g><g id="N"><use transform="matrix(0.05,0,0,0.05,0,0)" xlink:href="#bc"/><use transform="matrix(0.05,0,0,0.05,10,0)" xlink:href="#aZ"/></g><g id="O"><use transform="matrix(0.05,0,0,0.05,0,0)" xlink:href="#bc"/><use transform="matrix(0.05,0,0,0.05,10,0)" xlink:href="#bb"/></g><g id="P"><use transform="matrix(0.05,0,0,0.05,0,0)" xlink:href="#bc"/><use transform="matrix(0.05,0,0,0.05,10,0)" xlink:href="#bc"/></g><g id="Q"><use transform="matrix(0.05,0,0,0.05,0,0)" xlink:href="#bc"/><use transform="matrix(0.05,0,0,0.05,10,0)" xlink:href="#bd"/></g><path fill="#666" d="M239-623v226h96c95 0 147-40 147-119 0-80-52-107-147-107h-96zM659 0H494L342-280H239V0H91v-740h258c155 0 278 54 278 224 0 111-56 180-141 213" id="bm"/><use transform="matrix(0.015555555555555557,0,0,0.015555555555555557,0,0)" xlink:href="#bm" id="R"/><path fill="#666" d="M82 0v-119h159v-468H107v-91c74-14 125-33 172-62h109v621h139V0H82" id="bn"/><path fill="#666" d="M79 0v-798h143v480h4l194-242h160L386-331 598 0H439L303-232l-81 92V0H79" id="bo"/><g id="S"><use transform="matrix(0.015555555555555557,0,0,0.015555555555555557,0,0)" xlink:href="#bn"/><use transform="matrix(0.015555555555555557,0,0,0.015555555555555557,9.162222222222223,0)" xlink:href="#bo"/></g><path fill="#666" d="M51 0v-119h131v-4C129-177 67-274 67-404c0-206 132-350 331-350s332 144 332 350c0 130-62 227-115 281v4h131V0H454v-107c79-69 124-156 124-283 0-138-67-237-180-237-112 0-180 99-180 237 0 127 46 214 125 283V0H51" id="bp"/><use transform="matrix(0.015555555555555557,0,0,0.015555555555555557,0,0)" xlink:href="#bp" id="T"/><path fill="#666" d="M193-658v272h123c115 0 178-46 178-141 0-97-63-131-178-131H193zM608 0H503L325-311H193V0h-93v-733h230c149 0 256 53 256 206 0 114-66 182-166 206" id="bq"/><use transform="matrix(0.015555555555555557,0,0,0.015555555555555557,0,0)" xlink:href="#bq" id="U"/><path fill="#666" d="M92 0v-796h90c1 179-3 364 2 540l233-287h101L336-325 542 0h-99L284-262 182-143V0H92" id="br"/><g id="V"><use transform="matrix(0.015555555555555557,0,0,0.015555555555555557,0,0)" xlink:href="#aO"/><use transform="matrix(0.015555555555555557,0,0,0.015555555555555557,8.633333333333335,0)" xlink:href="#br"/></g><path fill="#666" d="M51 0v-76h146v-4C134-142 66-244 66-393c0-205 123-354 313-354s313 149 313 354c0 149-68 251-131 313v4h146V0H447v-67c84-66 150-165 150-320 0-159-81-279-218-279S161-546 161-387c0 155 65 254 150 320V0H51" id="bs"/><use transform="matrix(0.015555555555555557,0,0,0.015555555555555557,0,0)" xlink:href="#bs" id="W"/><path fill="#666" d="M301-58c70 0 124-67 124-167 0-99-43-162-132-162-46 0-102 26-150 94 11 152 66 235 158 235zm197-614l-50 57c-29-35-73-56-118-56-100 0-185 77-189 305 45-55 109-89 167-89 124 0 203 77 203 230 0 142-96 238-210 238C160 13 56-108 56-350c0-287 129-397 271-397 76 0 131 32 171 75" id="bt"/><path fill="#666" d="M100 0v-733h218c149 0 252 50 252 179 0 73-39 137-108 159v5c88 17 150 75 150 175C612-71 498 0 334 0H100zm93-421h109c126 0 177-47 177-121 0-86-59-118-173-118H193v239zm0 347h128c126 0 200-45 200-144 0-91-72-132-200-132H193v276" id="bu"/><g id="X"><use transform="matrix(0.015555555555555557,0,0,0.015555555555555557,0,0)" xlink:href="#bt"/><use transform="matrix(0.015555555555555557,0,0,0.015555555555555557,8.633333333333335,0)" xlink:href="#aX"/><use transform="matrix(0.015555555555555557,0,0,0.015555555555555557,17.26666666666667,0)" xlink:href="#bu"/></g><use transform="matrix(0.015555555555555557,0,0,0.015555555555555557,0,0)" xlink:href="#aO" id="Y"/><use transform="matrix(0.015555555555555557,0,0,0.015555555555555557,0,0)" xlink:href="#aP" id="Z"/><use transform="matrix(0.015555555555555557,0,0,0.015555555555555557,0,0)" xlink:href="#aQ" id="aa"/><use transform="matrix(0.015555555555555557,0,0,0.015555555555555557,0,0)" xlink:href="#aR" id="ab"/></defs></g></svg>